<svg width="300.000000" height="200.000000" viewBox="0 0 300 200" fill="none" xmlns="http://www.w3.org/2000/svg" xmlns:xlink="http://www.w3.org/1999/xlink">
	<desc>
			Created with Pixso.
	</desc>
	<defs>
		<clipPath id="clip235_255">
			<rect id="add-photo" width="98.000000" height="98.000000" transform="translate(101.000000 51.000000)" fill="white" fill-opacity="0"/>
		</clipPath>
	</defs>
	<rect id="Прямоугольник 23" width="300.000000" height="200.000000" fill="#C4C4C4" fill-opacity="0"/>
	<g clip-path="url(#clip235_255)">
		<path id="path" d="M101 130.67C101 135.77 102.79 140.08 106.39 143.61C109.98 147.13 114.32 148.93 119.42 149L171.46 149C176.42 149 181.03 147.75 185.27 145.27C189.52 142.79 192.89 139.42 195.37 135.18C197.85 130.93 199.06 126.36 199 121.46L199 81.67C199 76.57 197.2 72.23 193.6 68.64C190.01 65.04 185.7 63.25 180.67 63.25L161.17 63.25C159.86 59.65 157.64 56.71 154.5 54.43C151.37 52.14 147.84 51 143.92 51L119.42 51C114.32 51 109.98 52.79 106.39 56.39C102.79 59.98 101 64.32 101 69.42L101 130.67ZM113.25 130.67L113.25 69.42C113.25 67.72 113.83 66.28 115.01 65.11C116.18 63.93 117.66 63.31 119.42 63.25L143.92 63.25C145.55 63.25 146.99 63.87 148.23 65.11C149.47 66.35 150.06 67.79 150 69.42L150 75.5L180.67 75.5C182.3 75.5 183.74 76.08 184.98 77.26C186.22 78.43 186.81 79.87 186.75 81.57L186.75 98.52C182.11 95.39 177.01 93.82 171.46 93.82C167.73 93.82 164.17 94.57 160.77 96.08C157.38 97.58 154.44 99.54 151.96 101.96C149.47 104.37 147.51 107.28 146.08 110.68C144.64 114.07 143.92 117.67 143.92 121.46C143.92 127.01 145.45 132.11 148.52 136.75L119.42 136.75C117.72 136.75 116.25 136.16 115.01 134.98C113.77 133.81 113.18 132.37 113.25 130.67ZM156.17 121.46C156.17 117.21 157.64 113.58 160.58 110.58C163.52 107.57 167.15 106.07 171.46 106.07C175.77 106.07 179.36 107.57 182.24 110.58C185.11 113.58 186.61 117.21 186.75 121.46C186.75 125.7 185.21 129.3 182.14 132.24C179.07 135.18 175.51 136.68 171.46 136.75C167.21 136.75 163.59 135.24 160.58 132.24C157.57 129.23 156.1 125.64 156.17 121.46ZM162.25 124.5L168.42 124.5L168.42 130.57L174.5 130.57L174.5 124.5L180.67 124.5L180.67 118.32L174.5 118.32L174.5 112.25L168.42 112.25L168.42 118.32L162.25 118.32L162.25 124.5Z" fill="#000000" fill-opacity="1.000000" fill-rule="nonzero"/>
	</g>
</svg>
