<svg width="12.000977" height="22.000000" viewBox="0 0 12.001 22" fill="none" xmlns="http://www.w3.org/2000/svg" xmlns:xlink="http://www.w3.org/1999/xlink">
	<desc>
			Created with Pixso.
	</desc>
	<defs/>
	<path id="path" d="M11.7 11.7L1.7 21.7C1.61 21.8 1.5 21.87 1.38 21.92C1.26 21.97 1.13 22 1 22C0.86 22 0.74 21.97 0.61 21.92C0.49 21.87 0.38 21.8 0.29 21.7C0.19 21.61 0.12 21.5 0.07 21.38C0.02 21.26 0 21.13 0 21C0 20.86 0.02 20.73 0.07 20.61C0.12 20.49 0.19 20.38 0.29 20.29L9.58 11L0.29 1.7C0.19 1.61 0.12 1.5 0.07 1.38C0.02 1.26 0 1.13 0 1C0 0.86 0.02 0.74 0.07 0.61C0.12 0.49 0.19 0.38 0.29 0.29C0.38 0.19 0.49 0.12 0.61 0.07C0.74 0.02 0.86 0 1 0C1.13 0 1.26 0.02 1.38 0.07C1.5 0.12 1.61 0.19 1.7 0.29L11.7 10.29C11.8 10.38 11.87 10.49 11.92 10.61C11.97 10.73 12 10.86 12 11C12 11.13 11.97 11.26 11.92 11.38C11.87 11.5 11.8 11.61 11.7 11.7Z" fill="#000000" fill-opacity="1.000000" fill-rule="nonzero"/>
</svg>
