<svg width="12.000977" height="22.000488" viewBox="0 0 12.001 22.0005" fill="none" xmlns="http://www.w3.org/2000/svg" xmlns:xlink="http://www.w3.org/1999/xlink">
	<desc>
			Created with Pixso.
	</desc>
	<defs/>
	<path id="path" d="M11.7 20.29C11.8 20.38 11.87 20.49 11.92 20.61C11.97 20.74 12 20.86 12 21C12 21.13 11.97 21.26 11.92 21.38C11.87 21.5 11.8 21.61 11.7 21.7C11.61 21.8 11.5 21.87 11.38 21.92C11.26 21.97 11.13 22 11 22C10.86 22 10.74 21.97 10.61 21.92C10.49 21.87 10.38 21.8 10.29 21.7L0.29 11.7C0.19 11.61 0.12 11.5 0.07 11.38C0.02 11.26 0 11.13 0 11C0 10.86 0.02 10.74 0.07 10.61C0.12 10.49 0.19 10.38 0.29 10.29L10.29 0.29C10.38 0.19 10.49 0.12 10.61 0.07C10.74 0.02 10.86 0 11 0C11.13 0 11.26 0.02 11.38 0.07C11.5 0.12 11.61 0.19 11.7 0.29C11.8 0.38 11.87 0.49 11.92 0.61C11.97 0.74 12 0.86 12 1C12 1.13 11.97 1.26 11.92 1.38C11.87 1.5 11.8 1.61 11.7 1.7L2.41 11L11.7 20.29Z" fill="#000000" fill-opacity="1.000000" fill-rule="nonzero"/>
</svg>
