<svg width="50.000000" height="50.000000" viewBox="0 0 50 50" fill="none" xmlns="http://www.w3.org/2000/svg" xmlns:xlink="http://www.w3.org/1999/xlink">
	<desc>
			Created with Pixso.
	</desc>
	<defs/>
	<path id="path" d="M42.67 7.32C42.09 6.74 41.49 6.19 40.85 5.67C40.22 5.15 39.57 4.66 38.88 4.21C38.2 3.75 37.5 3.33 36.78 2.95C36.06 2.56 35.32 2.21 34.56 1.9C33.81 1.58 33.04 1.31 32.25 1.07C31.47 0.83 30.68 0.64 29.87 0.48C29.07 0.32 28.26 0.2 27.45 0.12C26.63 0.04 25.81 0 25 0C24.18 0 23.36 0.04 22.54 0.12C21.73 0.2 20.92 0.32 20.12 0.48C19.31 0.64 18.52 0.83 17.74 1.07C16.95 1.31 16.18 1.58 15.43 1.9C14.67 2.21 13.93 2.56 13.21 2.95C12.49 3.33 11.79 3.75 11.11 4.21C10.42 4.66 9.77 5.15 9.14 5.67C8.5 6.19 7.9 6.74 7.32 7.32C6.74 7.9 6.19 8.5 5.67 9.14C5.15 9.77 4.66 10.43 4.21 11.11C3.75 11.79 3.33 12.49 2.95 13.21C2.56 13.93 2.21 14.67 1.9 15.43C1.58 16.18 1.31 16.95 1.07 17.74C0.83 18.52 0.64 19.31 0.48 20.12C0.32 20.92 0.2 21.73 0.12 22.54C0.04 23.36 0 24.18 0 25C0 25.81 0.04 26.63 0.12 27.45C0.2 28.26 0.32 29.07 0.48 29.87C0.64 30.68 0.83 31.47 1.07 32.25C1.31 33.04 1.58 33.81 1.9 34.56C2.21 35.32 2.56 36.06 2.95 36.78C3.33 37.5 3.75 38.2 4.21 38.88C4.66 39.57 5.15 40.22 5.67 40.85C6.19 41.49 6.74 42.09 7.32 42.67C7.9 43.25 8.5 43.8 9.14 44.32C9.77 44.84 10.42 45.33 11.11 45.78C11.79 46.24 12.49 46.66 13.21 47.04C13.93 47.43 14.67 47.78 15.43 48.09C16.18 48.41 16.95 48.68 17.74 48.92C18.52 49.16 19.31 49.35 20.12 49.51C20.92 49.67 21.73 49.79 22.54 49.87C23.36 49.95 24.18 50 25 50C25.81 50 26.63 49.95 27.45 49.87C28.26 49.79 29.07 49.67 29.87 49.51C30.68 49.35 31.47 49.16 32.25 48.92C33.04 48.68 33.81 48.41 34.56 48.09C35.32 47.78 36.06 47.43 36.78 47.04C37.5 46.66 38.2 46.24 38.88 45.78C39.57 45.33 40.22 44.84 40.85 44.32C41.49 43.8 42.09 43.25 42.67 42.67C43.25 42.09 43.8 41.49 44.32 40.85C44.84 40.22 45.33 39.57 45.78 38.88C46.24 38.2 46.66 37.5 47.04 36.78C47.43 36.06 47.78 35.32 48.09 34.56C48.41 33.81 48.68 33.04 48.92 32.25C49.16 31.47 49.35 30.68 49.51 29.87C49.67 29.07 49.79 28.26 49.87 27.45C49.96 26.63 50 25.81 50 25C50 24.18 49.96 23.36 49.87 22.54C49.79 21.73 49.67 20.92 49.51 20.12C49.35 19.31 49.16 18.52 48.92 17.74C48.68 16.95 48.41 16.18 48.09 15.43C47.78 14.67 47.43 13.93 47.04 13.21C46.66 12.49 46.24 11.79 45.78 11.11C45.33 10.43 44.84 9.77 44.32 9.14C43.8 8.5 43.25 7.9 42.67 7.32ZM17.3 44.71L17.3 30.76L32.69 30.76L32.69 44.71C30.21 45.67 27.65 46.15 25 46.15C22.34 46.15 19.78 45.67 17.3 44.71ZM28.84 26.92L21.15 26.92L21.15 18.49L28.84 14.64L28.84 26.92ZM39.95 39.95C38.91 41 37.77 41.92 36.53 42.73L36.53 30.76C36.53 30.25 36.44 29.76 36.24 29.29C36.05 28.82 35.77 28.41 35.41 28.04C35.05 27.68 34.63 27.41 34.16 27.21C33.69 27.02 33.2 26.92 32.69 26.92L32.69 11.53C32.69 11.37 32.67 11.21 32.63 11.05C32.58 10.89 32.52 10.74 32.44 10.6C32.36 10.45 32.27 10.32 32.15 10.2C32.04 10.09 31.91 9.98 31.78 9.9C31.64 9.81 31.49 9.74 31.33 9.69C31.17 9.65 31.01 9.62 30.85 9.61C30.69 9.6 30.52 9.62 30.36 9.65C30.2 9.69 30.05 9.74 29.9 9.81L18.37 15.58C18.04 15.74 17.78 15.98 17.59 16.29C17.4 16.6 17.3 16.94 17.3 17.3L17.3 26.92C16.79 26.92 16.3 27.02 15.83 27.21C15.36 27.41 14.94 27.68 14.58 28.04C14.22 28.41 13.94 28.82 13.75 29.29C13.55 29.76 13.46 30.25 13.46 30.76L13.46 42.73C12.85 42.33 12.27 41.91 11.7 41.45C11.14 41 10.6 40.52 10.09 40.01C9.57 39.5 9.09 38.96 8.63 38.4C8.17 37.84 7.74 37.26 7.34 36.66C6.94 36.06 6.58 35.43 6.24 34.79C5.91 34.15 5.61 33.49 5.34 32.82C5.07 32.15 4.84 31.47 4.64 30.77C4.44 30.07 4.28 29.37 4.16 28.66C4.03 27.94 3.94 27.23 3.89 26.5C3.84 25.78 3.83 25.06 3.85 24.34C3.87 23.61 3.93 22.89 4.03 22.18C4.12 21.46 4.26 20.75 4.42 20.05C4.59 19.34 4.8 18.65 5.04 17.97C5.28 17.29 5.55 16.62 5.86 15.96C6.17 15.31 6.51 14.67 6.89 14.05C7.26 13.43 7.67 12.84 8.1 12.26C8.54 11.68 9 11.13 9.5 10.6C9.99 10.07 10.51 9.56 11.05 9.09C11.59 8.61 12.16 8.16 12.75 7.74C13.34 7.32 13.95 6.94 14.58 6.58C15.21 6.22 15.86 5.9 16.52 5.61C17.18 5.32 17.86 5.07 18.55 4.85C19.24 4.63 19.94 4.44 20.65 4.29C21.35 4.14 22.07 4.03 22.79 3.96C23.51 3.88 24.23 3.84 24.95 3.84C25.67 3.84 26.4 3.88 27.12 3.95C27.84 4.02 28.55 4.13 29.26 4.28C29.97 4.42 30.67 4.61 31.36 4.82C32.05 5.04 32.72 5.29 33.39 5.58C34.05 5.87 34.7 6.19 35.33 6.54C35.96 6.9 36.57 7.28 37.17 7.7C37.76 8.11 38.33 8.56 38.87 9.03C39.42 9.51 39.94 10.01 40.43 10.54C40.93 11.07 41.39 11.62 41.83 12.19C42.27 12.77 42.68 13.37 43.05 13.98C43.43 14.6 43.77 15.24 44.09 15.89C44.4 16.54 44.67 17.21 44.92 17.89C45.16 18.57 45.37 19.27 45.54 19.97C45.71 20.67 45.85 21.38 45.95 22.1C46.04 22.81 46.11 23.53 46.13 24.26C46.16 24.98 46.15 25.7 46.1 26.43C46.05 27.15 45.96 27.86 45.84 28.58C45.72 29.29 45.56 30 45.36 30.69C45.17 31.39 44.94 32.07 44.67 32.75C44.41 33.42 44.11 34.08 43.78 34.72C43.44 35.36 43.08 35.99 42.68 36.59C42.29 37.2 41.86 37.78 41.4 38.34C40.95 38.9 40.46 39.44 39.95 39.95Z" fill="#000000" fill-opacity="1.000000" fill-rule="nonzero"/>
</svg>
