<svg width="24.000000" height="24.000000" viewBox="0 0 24 24" fill="none" xmlns="http://www.w3.org/2000/svg" xmlns:xlink="http://www.w3.org/1999/xlink">
	<desc>
			Created with Pixso.
	</desc>
	<defs/>
	<path id="path" d="M23 3.69L18 3.69L18 2.76C18 2.58 17.98 2.4 17.94 2.22C17.9 2.05 17.84 1.87 17.77 1.7C17.69 1.54 17.6 1.38 17.49 1.23C17.38 1.07 17.26 0.93 17.12 0.81C16.98 0.68 16.83 0.56 16.66 0.46C16.5 0.36 16.33 0.28 16.14 0.21C15.96 0.14 15.77 0.08 15.58 0.05C15.39 0.01 15.19 0 15 0L9 0C8.8 0 8.6 0.01 8.41 0.05C8.22 0.08 8.03 0.14 7.85 0.21C7.66 0.28 7.49 0.36 7.33 0.46C7.16 0.56 7.01 0.68 6.87 0.81C6.73 0.93 6.61 1.07 6.5 1.23C6.39 1.38 6.3 1.54 6.22 1.7C6.15 1.87 6.09 2.05 6.05 2.22C6.01 2.4 6 2.58 6 2.76L6 3.69L1 3.69C0.86 3.69 0.74 3.71 0.61 3.76C0.49 3.8 0.38 3.87 0.29 3.96C0.19 4.04 0.12 4.14 0.07 4.26C0.02 4.37 0 4.49 0 4.61C0 4.73 0.02 4.85 0.07 4.96C0.12 5.08 0.19 5.18 0.29 5.26C0.38 5.35 0.49 5.42 0.61 5.46C0.74 5.51 0.86 5.53 1 5.53L2 5.53L2 22.15C2 22.39 2.05 22.63 2.15 22.86C2.25 23.08 2.39 23.28 2.58 23.45C2.77 23.63 2.98 23.76 3.23 23.85C3.47 23.95 3.73 24 4 24L20 24C20.26 24 20.52 23.95 20.76 23.85C21.01 23.76 21.22 23.63 21.41 23.45C21.6 23.28 21.74 23.08 21.84 22.86C21.94 22.63 22 22.39 22 22.15L22 5.53L23 5.53C23.13 5.53 23.25 5.51 23.38 5.46C23.5 5.42 23.61 5.35 23.7 5.26C23.8 5.18 23.87 5.08 23.92 4.96C23.97 4.85 24 4.73 24 4.61C24 4.49 23.97 4.37 23.92 4.26C23.87 4.14 23.8 4.04 23.7 3.96C23.61 3.87 23.5 3.8 23.38 3.76C23.25 3.71 23.13 3.69 23 3.69ZM8 2.76C8 2.64 8.02 2.52 8.07 2.41C8.12 2.3 8.19 2.2 8.29 2.11C8.38 2.03 8.49 1.96 8.61 1.91C8.74 1.86 8.86 1.84 9 1.84L15 1.84C15.13 1.84 15.25 1.86 15.38 1.91C15.5 1.96 15.61 2.03 15.7 2.11C15.8 2.2 15.87 2.3 15.92 2.41C15.97 2.52 16 2.64 16 2.76L16 3.69L8 3.69L8 2.76ZM20 22.15L4 22.15L4 5.53L20 5.53L20 22.15ZM10 10.15L10 17.53C10 17.66 9.97 17.77 9.92 17.89C9.87 18 9.8 18.1 9.7 18.19C9.61 18.27 9.5 18.34 9.38 18.39C9.25 18.43 9.13 18.46 9 18.46C8.86 18.46 8.74 18.43 8.61 18.39C8.49 18.34 8.38 18.27 8.29 18.19C8.19 18.1 8.12 18 8.07 17.89C8.02 17.77 8 17.66 8 17.53L8 10.15C8 10.03 8.02 9.91 8.07 9.8C8.12 9.68 8.19 9.58 8.29 9.5C8.38 9.41 8.49 9.34 8.61 9.3C8.74 9.25 8.86 9.23 9 9.23C9.13 9.23 9.25 9.25 9.38 9.3C9.5 9.34 9.61 9.41 9.7 9.5C9.8 9.58 9.87 9.68 9.92 9.8C9.97 9.91 10 10.03 10 10.15ZM16 10.15L16 17.53C16 17.66 15.97 17.77 15.92 17.89C15.87 18 15.8 18.1 15.7 18.19C15.61 18.27 15.5 18.34 15.38 18.39C15.25 18.43 15.13 18.46 15 18.46C14.86 18.46 14.74 18.43 14.61 18.39C14.49 18.34 14.38 18.27 14.29 18.19C14.19 18.1 14.12 18 14.07 17.89C14.02 17.77 14 17.66 14 17.53L14 10.15C14 10.03 14.02 9.91 14.07 9.8C14.12 9.68 14.19 9.58 14.29 9.5C14.38 9.41 14.49 9.34 14.61 9.3C14.74 9.25 14.86 9.23 15 9.23C15.13 9.23 15.25 9.25 15.38 9.3C15.5 9.34 15.61 9.41 15.7 9.5C15.8 9.58 15.87 9.68 15.92 9.8C15.97 9.91 16 10.03 16 10.15Z" fill="#000000" fill-opacity="1.000000" fill-rule="nonzero"/>
</svg>
