<svg width="24.000000" height="24.000000" viewBox="0 0 24 24" fill="none" xmlns="http://www.w3.org/2000/svg" xmlns:xlink="http://www.w3.org/1999/xlink">
	<desc>
			Created with Pixso.
	</desc>
	<defs/>
	<path id="path" d="M20.48 3.51C20.2 3.23 19.91 2.97 19.61 2.72C19.3 2.47 18.99 2.24 18.66 2.02C18.33 1.8 18 1.6 17.65 1.41C17.31 1.23 16.95 1.06 16.59 0.91C16.22 0.76 15.85 0.63 15.48 0.51C15.1 0.4 14.72 0.3 14.34 0.23C13.95 0.15 13.56 0.09 13.17 0.05C12.78 0.01 12.39 0 12 0C11.6 0 11.21 0.01 10.82 0.05C10.43 0.09 10.04 0.15 9.65 0.23C9.27 0.3 8.89 0.4 8.51 0.51C8.14 0.63 7.77 0.76 7.4 0.91C7.04 1.06 6.68 1.23 6.34 1.41C5.99 1.6 5.66 1.8 5.33 2.02C5 2.24 4.69 2.47 4.38 2.72C4.08 2.97 3.79 3.23 3.51 3.51C3.23 3.79 2.97 4.08 2.72 4.38C2.47 4.69 2.24 5 2.02 5.33C1.8 5.66 1.6 5.99 1.41 6.34C1.23 6.68 1.06 7.04 0.91 7.4C0.76 7.77 0.63 8.14 0.51 8.51C0.4 8.89 0.3 9.27 0.23 9.65C0.15 10.04 0.09 10.43 0.05 10.82C0.01 11.21 0 11.6 0 12C0 12.39 0.01 12.78 0.05 13.17C0.09 13.56 0.15 13.95 0.23 14.34C0.3 14.72 0.4 15.1 0.51 15.48C0.63 15.85 0.76 16.22 0.91 16.59C1.06 16.95 1.23 17.31 1.41 17.65C1.6 18 1.8 18.33 2.02 18.66C2.24 18.99 2.47 19.3 2.72 19.61C2.97 19.91 3.23 20.2 3.51 20.48C3.79 20.76 4.08 21.02 4.38 21.27C4.69 21.52 5 21.75 5.33 21.97C5.66 22.19 5.99 22.39 6.34 22.58C6.68 22.76 7.04 22.93 7.4 23.08C7.77 23.23 8.14 23.36 8.51 23.48C8.89 23.59 9.27 23.69 9.65 23.76C10.04 23.84 10.43 23.9 10.82 23.94C11.21 23.98 11.6 24 12 24C12.39 24 12.78 23.98 13.17 23.94C13.56 23.9 13.95 23.84 14.34 23.76C14.72 23.69 15.1 23.59 15.48 23.48C15.85 23.36 16.22 23.23 16.59 23.08C16.95 22.93 17.31 22.76 17.65 22.58C18 22.39 18.33 22.19 18.66 21.97C18.99 21.75 19.3 21.52 19.61 21.27C19.91 21.02 20.2 20.76 20.48 20.48C20.76 20.2 21.02 19.91 21.27 19.61C21.52 19.3 21.75 18.99 21.97 18.66C22.19 18.33 22.39 18 22.58 17.65C22.76 17.31 22.93 16.95 23.08 16.59C23.23 16.22 23.36 15.85 23.48 15.48C23.59 15.1 23.69 14.72 23.76 14.34C23.84 13.95 23.9 13.56 23.94 13.17C23.98 12.78 24 12.39 24 12C24 11.6 23.98 11.21 23.94 10.82C23.9 10.43 23.84 10.04 23.76 9.65C23.69 9.27 23.59 8.89 23.48 8.51C23.36 8.14 23.23 7.77 23.08 7.4C22.93 7.04 22.76 6.68 22.58 6.34C22.39 5.99 22.19 5.66 21.97 5.33C21.75 5 21.52 4.69 21.27 4.38C21.02 4.08 20.76 3.79 20.48 3.51ZM8.3 21.46L8.3 14.76L15.69 14.76L15.69 21.46C14.5 21.92 13.27 22.15 12 22.15C10.72 22.15 9.49 21.92 8.3 21.46ZM13.84 12.92L10.15 12.92L10.15 8.87L13.84 7.03L13.84 12.92ZM19.17 19.17C18.67 19.68 18.13 20.12 17.53 20.51L17.53 14.76C17.53 14.52 17.49 14.28 17.39 14.06C17.3 13.83 17.17 13.63 16.99 13.46C16.82 13.29 16.62 13.15 16.39 13.06C16.17 12.96 15.93 12.92 15.69 12.92L15.69 5.53C15.69 5.45 15.68 5.38 15.66 5.3C15.64 5.23 15.61 5.15 15.57 5.08C15.53 5.01 15.49 4.95 15.43 4.9C15.38 4.84 15.32 4.79 15.25 4.75C15.18 4.71 15.11 4.67 15.04 4.65C14.96 4.63 14.88 4.61 14.81 4.61C14.73 4.61 14.65 4.61 14.57 4.63C14.5 4.65 14.42 4.67 14.35 4.71L8.81 7.48C8.66 7.55 8.53 7.67 8.44 7.82C8.35 7.97 8.3 8.13 8.3 8.3L8.3 12.92C8.06 12.92 7.82 12.96 7.6 13.06C7.37 13.15 7.17 13.29 7 13.46C6.82 13.63 6.69 13.83 6.6 14.06C6.5 14.28 6.46 14.52 6.46 14.76L6.46 20.51C6.17 20.32 5.88 20.11 5.62 19.9C5.34 19.68 5.09 19.45 4.84 19.2C4.59 18.96 4.36 18.7 4.14 18.43C3.92 18.16 3.71 17.88 3.52 17.59C3.33 17.3 3.16 17.01 2.99 16.7C2.83 16.39 2.69 16.07 2.56 15.75C2.43 15.43 2.32 15.1 2.23 14.77C2.13 14.43 2.05 14.09 1.99 13.75C1.93 13.41 1.89 13.07 1.87 12.72C1.84 12.37 1.83 12.03 1.84 11.68C1.86 11.33 1.88 10.99 1.93 10.64C1.98 10.3 2.04 9.96 2.12 9.62C2.2 9.28 2.3 8.95 2.42 8.62C2.53 8.29 2.66 7.97 2.81 7.66C2.96 7.35 3.12 7.04 3.3 6.74C3.48 6.45 3.68 6.16 3.89 5.88C4.1 5.6 4.32 5.34 4.56 5.08C4.79 4.83 5.04 4.59 5.3 4.36C5.56 4.13 5.83 3.91 6.12 3.71C6.4 3.51 6.69 3.33 7 3.16C7.3 2.99 7.61 2.83 7.93 2.69C8.25 2.55 8.57 2.43 8.9 2.32C9.23 2.22 9.57 2.13 9.91 2.06C10.25 1.99 10.59 1.93 10.94 1.9C11.28 1.86 11.63 1.84 11.97 1.84C12.32 1.84 12.67 1.86 13.01 1.89C13.36 1.93 13.7 1.98 14.04 2.05C14.38 2.12 14.72 2.21 15.05 2.31C15.38 2.42 15.71 2.54 16.02 2.68C16.34 2.81 16.65 2.97 16.96 3.14C17.26 3.31 17.55 3.49 17.84 3.69C18.12 3.89 18.39 4.11 18.66 4.33C18.92 4.56 19.17 4.8 19.41 5.06C19.64 5.31 19.87 5.57 20.08 5.85C20.29 6.13 20.48 6.41 20.66 6.71C20.84 7.01 21.01 7.31 21.16 7.62C21.31 7.94 21.44 8.26 21.56 8.59C21.67 8.91 21.77 9.25 21.86 9.58C21.94 9.92 22 10.26 22.05 10.6C22.1 10.95 22.13 11.29 22.14 11.64C22.15 11.99 22.15 12.33 22.12 12.68C22.1 13.03 22.06 13.37 22 13.71C21.94 14.06 21.87 14.4 21.77 14.73C21.68 15.06 21.57 15.39 21.44 15.72C21.31 16.04 21.17 16.36 21.01 16.66C20.85 16.97 20.68 17.27 20.49 17.56C20.29 17.85 20.09 18.13 19.87 18.4C19.65 18.67 19.42 18.93 19.17 19.17Z" fill="#000000" fill-opacity="1.000000" fill-rule="nonzero"/>
</svg>
