<svg width="56.000000" height="56.000000" viewBox="0 0 56 56" fill="none" xmlns="http://www.w3.org/2000/svg" xmlns:xlink="http://www.w3.org/1999/xlink">
	<desc>
			Created with Pixso.
	</desc>
	<defs>
		<clipPath id="clip10_151">
			<rect id="Sliders" width="56.000000" height="56.000000" fill="white" fill-opacity="0"/>
		</clipPath>
	</defs>
	<g clip-path="url(#clip10_151)">
		<path id="path" d="M14 22.96L14 8.75C14 8.51 13.95 8.29 13.86 8.08C13.77 7.86 13.65 7.67 13.48 7.51C13.32 7.34 13.13 7.22 12.91 7.13C12.7 7.04 12.48 7 12.25 7C12.01 7 11.79 7.04 11.58 7.13C11.36 7.22 11.17 7.34 11.01 7.51C10.84 7.67 10.72 7.86 10.63 8.08C10.54 8.29 10.5 8.51 10.5 8.75L10.5 22.96C9.74 23.16 9.04 23.47 8.39 23.89C7.74 24.32 7.18 24.84 6.7 25.45C6.22 26.07 5.86 26.74 5.61 27.48C5.36 28.21 5.23 28.97 5.23 29.75C5.23 30.52 5.36 31.28 5.61 32.01C5.86 32.75 6.22 33.42 6.7 34.04C7.18 34.65 7.74 35.17 8.39 35.6C9.04 36.02 9.74 36.33 10.5 36.53L10.5 47.25C10.5 47.48 10.54 47.7 10.63 47.91C10.72 48.13 10.84 48.32 11.01 48.48C11.17 48.65 11.36 48.77 11.58 48.86C11.79 48.95 12.01 49 12.25 49C12.48 49 12.7 48.95 12.91 48.86C13.13 48.77 13.32 48.65 13.48 48.48C13.65 48.32 13.77 48.13 13.86 47.91C13.95 47.7 14 47.48 14 47.25L14 36.53C14.75 36.33 15.45 36.02 16.1 35.6C16.75 35.17 17.31 34.65 17.79 34.04C18.27 33.42 18.63 32.75 18.88 32.01C19.13 31.28 19.26 30.52 19.26 29.75C19.26 28.97 19.13 28.21 18.88 27.48C18.63 26.74 18.27 26.07 17.79 25.45C17.31 24.84 16.75 24.32 16.1 23.89C15.45 23.47 14.75 23.16 14 22.96ZM12.25 33.25C11.78 33.25 11.33 33.16 10.91 32.98C10.48 32.8 10.1 32.55 9.77 32.22C9.44 31.89 9.19 31.51 9.01 31.08C8.83 30.66 8.75 30.21 8.75 29.75C8.75 29.28 8.83 28.83 9.01 28.41C9.19 27.98 9.44 27.6 9.77 27.27C10.1 26.94 10.48 26.69 10.91 26.51C11.33 26.33 11.78 26.25 12.25 26.25C12.71 26.25 13.16 26.33 13.58 26.51C14.01 26.69 14.39 26.94 14.72 27.27C15.05 27.6 15.3 27.98 15.48 28.41C15.66 28.83 15.75 29.28 15.75 29.75C15.75 30.21 15.66 30.66 15.48 31.08C15.3 31.51 15.05 31.89 14.72 32.22C14.39 32.55 14.01 32.8 13.58 32.98C13.16 33.16 12.71 33.25 12.25 33.25ZM29.75 12.46L29.75 8.75C29.75 8.51 29.7 8.29 29.61 8.08C29.52 7.86 29.4 7.67 29.23 7.51C29.07 7.34 28.88 7.22 28.66 7.13C28.45 7.04 28.23 7 28 7C27.76 7 27.54 7.04 27.33 7.13C27.11 7.22 26.92 7.34 26.76 7.51C26.59 7.67 26.47 7.86 26.38 8.08C26.29 8.29 26.25 8.51 26.25 8.75L26.25 12.46C25.49 12.66 24.79 12.97 24.14 13.39C23.49 13.82 22.93 14.34 22.45 14.95C21.98 15.57 21.61 16.24 21.36 16.98C21.11 17.71 20.98 18.47 20.98 19.25C20.98 20.02 21.11 20.78 21.36 21.51C21.61 22.25 21.98 22.92 22.45 23.54C22.93 24.15 23.49 24.67 24.14 25.1C24.79 25.52 25.49 25.83 26.25 26.03L26.25 47.25C26.25 47.48 26.29 47.7 26.38 47.91C26.47 48.13 26.59 48.32 26.76 48.48C26.92 48.65 27.11 48.77 27.33 48.86C27.54 48.95 27.76 49 28 49C28.23 49 28.45 48.95 28.66 48.86C28.88 48.77 29.07 48.65 29.23 48.48C29.4 48.32 29.52 48.13 29.61 47.91C29.7 47.7 29.75 47.48 29.75 47.25L29.75 26.03C30.5 25.83 31.2 25.52 31.85 25.1C32.5 24.67 33.06 24.15 33.54 23.54C34.02 22.92 34.38 22.25 34.63 21.51C34.88 20.78 35.01 20.02 35.01 19.25C35.01 18.47 34.88 17.71 34.63 16.98C34.38 16.24 34.02 15.57 33.54 14.95C33.06 14.34 32.5 13.82 31.85 13.39C31.2 12.97 30.5 12.66 29.75 12.46ZM28 22.75C27.53 22.75 27.08 22.66 26.66 22.48C26.23 22.3 25.85 22.05 25.52 21.72C25.19 21.39 24.94 21.01 24.76 20.58C24.58 20.16 24.5 19.71 24.5 19.25C24.5 18.78 24.58 18.33 24.76 17.91C24.94 17.48 25.19 17.1 25.52 16.77C25.85 16.44 26.23 16.19 26.66 16.01C27.08 15.83 27.53 15.75 28 15.75C28.46 15.75 28.91 15.83 29.33 16.01C29.76 16.19 30.14 16.44 30.47 16.77C30.8 17.1 31.05 17.48 31.23 17.91C31.41 18.33 31.5 18.78 31.5 19.25C31.5 19.71 31.41 20.16 31.23 20.58C31.05 21.01 30.8 21.39 30.47 21.72C30.14 22.05 29.76 22.3 29.33 22.48C28.91 22.66 28.46 22.75 28 22.75ZM50.75 36.75C50.74 35.97 50.62 35.21 50.37 34.48C50.12 33.75 49.75 33.07 49.28 32.46C48.8 31.84 48.24 31.32 47.59 30.9C46.95 30.47 46.25 30.16 45.5 29.96L45.5 8.75C45.5 8.51 45.45 8.29 45.36 8.08C45.27 7.86 45.15 7.67 44.98 7.51C44.82 7.34 44.63 7.22 44.41 7.13C44.2 7.04 43.98 7 43.75 7C43.51 7 43.29 7.04 43.08 7.13C42.86 7.22 42.67 7.34 42.51 7.51C42.34 7.67 42.22 7.86 42.13 8.08C42.04 8.29 42 8.51 42 8.75L42 29.96C41.24 30.16 40.54 30.47 39.89 30.89C39.24 31.32 38.68 31.84 38.2 32.45C37.73 33.07 37.36 33.74 37.11 34.48C36.86 35.21 36.73 35.97 36.73 36.75C36.73 37.52 36.86 38.28 37.11 39.01C37.36 39.75 37.73 40.42 38.2 41.04C38.68 41.65 39.24 42.17 39.89 42.6C40.54 43.02 41.24 43.33 42 43.53L42 47.25C42 47.48 42.04 47.7 42.13 47.91C42.22 48.13 42.34 48.32 42.51 48.48C42.67 48.65 42.86 48.77 43.08 48.86C43.29 48.95 43.51 49 43.75 49C43.98 49 44.2 48.95 44.41 48.86C44.63 48.77 44.82 48.65 44.98 48.48C45.15 48.32 45.27 48.13 45.36 47.91C45.45 47.7 45.5 47.48 45.5 47.25L45.5 43.53C46.25 43.33 46.95 43.02 47.59 42.59C48.24 42.17 48.8 41.65 49.28 41.03C49.75 40.42 50.12 39.74 50.37 39.01C50.62 38.28 50.74 37.52 50.75 36.75ZM43.75 40.25C43.28 40.25 42.83 40.16 42.41 39.98C41.98 39.8 41.6 39.55 41.27 39.22C40.94 38.89 40.69 38.51 40.51 38.08C40.33 37.66 40.25 37.21 40.25 36.75C40.25 36.28 40.33 35.83 40.51 35.41C40.69 34.98 40.94 34.6 41.27 34.27C41.6 33.94 41.98 33.69 42.41 33.51C42.83 33.33 43.28 33.25 43.75 33.25C44.21 33.25 44.66 33.33 45.08 33.51C45.51 33.69 45.89 33.94 46.22 34.27C46.55 34.6 46.8 34.98 46.98 35.41C47.16 35.83 47.25 36.28 47.25 36.75C47.25 37.21 47.16 37.66 46.98 38.08C46.8 38.51 46.55 38.89 46.22 39.22C45.89 39.55 45.51 39.8 45.08 39.98C44.66 40.16 44.21 40.25 43.75 40.25Z" fill="#000000" fill-opacity="1.000000" fill-rule="nonzero"/>
	</g>
</svg>
