<svg width="107.000977" height="107.000305" viewBox="0 0 107.001 107" fill="none" xmlns="http://www.w3.org/2000/svg" xmlns:xlink="http://www.w3.org/1999/xlink">
	<desc>
			Created with Pixso.
	</desc>
	<defs>
		<filter id="filter_10_159_dd" x="0.000000" y="0.000000" width="107.000977" height="107.000305" filterUnits="userSpaceOnUse" color-interpolation-filters="sRGB">
			<feFlood flood-opacity="0" result="BackgroundImageFix"/>
			<feColorMatrix in="SourceAlpha" type="matrix" values="0 0 0 0 0 0 0 0 0 0 0 0 0 0 0 0 0 0 127 0" result="hardAlpha"/>
			<feOffset dx="10" dy="10"/>
			<feGaussianBlur stdDeviation="10"/>
			<feComposite in2="hardAlpha" operator="out" k2="-1" k3="1"/>
			<feColorMatrix type="matrix" values="0 0 0 0 0 0 0 0 0 0 0 0 0 0 0 0 0 0 0.25 0"/>
			<feBlend mode="normal" in2="BackgroundImageFix" result="effect_dropShadow_1"/>
			<feBlend mode="normal" in="SourceGraphic" in2="effect_dropShadow_1" result="shape"/>
		</filter>
	</defs>
	<g filter="url(#filter_10_159_dd)">
		<path id="path" d="M20.72 43.14C20.91 43.28 21.12 43.38 21.36 43.44C21.59 43.5 21.82 43.51 22.06 43.48C22.3 43.45 22.52 43.37 22.73 43.25C22.93 43.12 23.11 42.97 23.25 42.77C23.52 42.41 23.82 42.06 24.13 41.74C24.44 41.41 24.77 41.1 25.12 40.8C25.47 40.51 25.84 40.24 26.22 39.99C26.6 39.75 26.99 39.52 27.4 39.32C27.8 39.11 28.22 38.93 28.65 38.78C29.07 38.62 29.51 38.49 29.95 38.39C30.39 38.29 30.84 38.21 31.29 38.15C31.74 38.1 32.2 38.08 32.65 38.08C33.1 38.08 33.56 38.1 34.01 38.15C34.46 38.21 34.91 38.29 35.35 38.39C35.79 38.49 36.23 38.62 36.65 38.78C37.08 38.93 37.5 39.11 37.91 39.32C38.31 39.52 38.71 39.75 39.09 39.99C39.47 40.24 39.83 40.51 40.18 40.8C40.53 41.1 40.86 41.41 41.17 41.74C41.49 42.06 41.78 42.41 42.05 42.77C42.19 42.97 42.37 43.12 42.58 43.25C42.78 43.37 43 43.44 43.24 43.48C43.48 43.51 43.71 43.5 43.95 43.44C44.18 43.38 44.39 43.28 44.58 43.13C44.72 43.03 44.84 42.91 44.94 42.77C45.21 42.41 45.51 42.06 45.82 41.74C46.13 41.41 46.46 41.1 46.81 40.8C47.16 40.51 47.53 40.24 47.91 39.99C48.29 39.75 48.68 39.52 49.09 39.32C49.49 39.11 49.91 38.93 50.34 38.78C50.76 38.62 51.2 38.49 51.64 38.39C52.08 38.29 52.53 38.21 52.98 38.15C53.43 38.1 53.89 38.08 54.34 38.08C54.8 38.08 55.25 38.1 55.7 38.15C56.15 38.21 56.6 38.29 57.04 38.39C57.48 38.49 57.92 38.62 58.35 38.78C58.77 38.93 59.19 39.11 59.6 39.32C60 39.52 60.4 39.75 60.78 39.99C61.16 40.24 61.52 40.51 61.87 40.8C62.22 41.1 62.55 41.41 62.86 41.74C63.18 42.06 63.47 42.41 63.74 42.77C63.89 42.97 64.06 43.12 64.27 43.25C64.47 43.37 64.69 43.45 64.93 43.48C65.17 43.51 65.4 43.5 65.64 43.44C65.87 43.38 66.08 43.28 66.27 43.14C66.46 42.99 66.62 42.82 66.74 42.61C66.87 42.4 66.94 42.18 66.98 41.94C67.01 41.71 67 41.47 66.94 41.24C66.88 41.01 66.78 40.8 66.63 40.6C65.01 38.42 62.94 36.79 60.44 35.71C60.89 35.3 61.29 34.85 61.65 34.36C62.01 33.87 62.31 33.35 62.56 32.8C62.82 32.25 63.01 31.68 63.15 31.1C63.29 30.51 63.37 29.91 63.38 29.31C63.4 28.7 63.36 28.1 63.26 27.5C63.16 26.91 63 26.33 62.78 25.76C62.56 25.2 62.29 24.66 61.96 24.15C61.63 23.65 61.26 23.17 60.84 22.74C60.42 22.31 59.96 21.92 59.46 21.58C58.96 21.23 58.43 20.95 57.87 20.71C57.31 20.47 56.74 20.3 56.15 20.18C55.55 20.06 54.96 20 54.35 20C53.75 20 53.15 20.06 52.55 20.18C51.96 20.3 51.39 20.47 50.83 20.71C50.27 20.95 49.74 21.23 49.24 21.58C48.74 21.92 48.28 22.31 47.86 22.74C47.44 23.17 47.07 23.65 46.74 24.15C46.41 24.66 46.14 25.2 45.92 25.76C45.7 26.33 45.54 26.91 45.44 27.5C45.34 28.1 45.3 28.7 45.32 29.31C45.33 29.91 45.41 30.51 45.55 31.1C45.69 31.68 45.88 32.25 46.14 32.8C46.39 33.35 46.69 33.87 47.05 34.36C47.41 34.85 47.81 35.3 48.26 35.71C46.47 36.48 44.88 37.56 43.51 38.94C42.14 37.56 40.55 36.48 38.77 35.71C39.21 35.3 39.61 34.85 39.97 34.36C40.33 33.87 40.63 33.35 40.88 32.8C41.14 32.25 41.33 31.68 41.47 31.1C41.61 30.51 41.69 29.91 41.71 29.31C41.72 28.7 41.68 28.1 41.58 27.5C41.48 26.91 41.32 26.33 41.1 25.76C40.88 25.2 40.61 24.66 40.28 24.15C39.95 23.65 39.58 23.17 39.16 22.74C38.74 22.31 38.28 21.92 37.78 21.58C37.28 21.23 36.75 20.95 36.19 20.71C35.64 20.47 35.06 20.3 34.47 20.18C33.87 20.06 33.28 20 32.67 20C32.07 20 31.47 20.06 30.87 20.18C30.28 20.3 29.71 20.47 29.15 20.71C28.59 20.95 28.06 21.23 27.56 21.58C27.06 21.92 26.6 22.31 26.18 22.74C25.76 23.17 25.39 23.65 25.06 24.15C24.74 24.66 24.46 25.2 24.24 25.76C24.03 26.33 23.86 26.91 23.76 27.5C23.66 28.1 23.62 28.7 23.64 29.31C23.65 29.91 23.73 30.51 23.87 31.1C24.01 31.68 24.2 32.25 24.46 32.8C24.71 33.35 25.01 33.87 25.37 34.36C25.73 34.85 26.13 35.3 26.58 35.71C24.07 36.79 21.99 38.42 20.36 40.61C20.21 40.8 20.11 41.01 20.05 41.24C19.99 41.47 19.98 41.71 20.01 41.95C20.05 42.18 20.13 42.41 20.25 42.61C20.37 42.82 20.53 42.99 20.72 43.14ZM54.34 23.62C54.7 23.62 55.05 23.65 55.4 23.72C55.75 23.79 56.09 23.89 56.42 24.03C56.75 24.17 57.06 24.33 57.36 24.53C57.65 24.73 57.93 24.95 58.18 25.2C58.43 25.46 58.65 25.73 58.85 26.03C59.05 26.32 59.22 26.63 59.35 26.96C59.49 27.29 59.59 27.63 59.66 27.98C59.73 28.33 59.77 28.68 59.77 29.04C59.77 29.39 59.73 29.75 59.66 30.1C59.59 30.45 59.49 30.78 59.35 31.11C59.22 31.44 59.05 31.76 58.85 32.05C58.65 32.35 58.43 32.62 58.18 32.87C57.93 33.12 57.65 33.35 57.36 33.55C57.06 33.74 56.75 33.91 56.42 34.05C56.09 34.18 55.75 34.29 55.4 34.36C55.05 34.43 54.7 34.46 54.34 34.46C53.99 34.46 53.63 34.43 53.29 34.36C52.94 34.29 52.6 34.18 52.27 34.05C51.94 33.91 51.63 33.74 51.33 33.55C51.03 33.35 50.76 33.12 50.51 32.87C50.26 32.62 50.03 32.35 49.83 32.05C49.64 31.76 49.47 31.44 49.33 31.11C49.2 30.78 49.09 30.45 49.02 30.1C48.95 29.75 48.92 29.39 48.92 29.04C48.92 28.68 48.95 28.33 49.02 27.98C49.09 27.63 49.2 27.29 49.33 26.96C49.47 26.63 49.64 26.32 49.83 26.03C50.03 25.73 50.26 25.46 50.51 25.2C50.76 24.95 51.03 24.73 51.33 24.53C51.63 24.33 51.94 24.17 52.27 24.03C52.6 23.89 52.94 23.79 53.29 23.72C53.63 23.65 53.99 23.62 54.34 23.62ZM32.65 23.62C33.01 23.62 33.36 23.65 33.71 23.72C34.06 23.79 34.4 23.89 34.73 24.03C35.05 24.17 35.37 24.33 35.66 24.53C35.96 24.73 36.23 24.95 36.49 25.2C36.74 25.46 36.96 25.73 37.16 26.03C37.36 26.32 37.52 26.63 37.66 26.96C37.8 27.29 37.9 27.63 37.97 27.98C38.04 28.33 38.07 28.68 38.07 29.04C38.07 29.39 38.04 29.75 37.97 30.1C37.9 30.45 37.8 30.78 37.66 31.11C37.52 31.44 37.36 31.76 37.16 32.05C36.96 32.35 36.74 32.62 36.49 32.87C36.23 33.12 35.96 33.35 35.66 33.55C35.37 33.74 35.05 33.91 34.73 34.05C34.4 34.18 34.06 34.29 33.71 34.36C33.36 34.43 33.01 34.46 32.65 34.46C32.29 34.46 31.94 34.43 31.59 34.36C31.24 34.29 30.9 34.18 30.58 34.05C30.25 33.91 29.93 33.74 29.64 33.55C29.34 33.35 29.07 33.12 28.82 32.87C28.56 32.62 28.34 32.35 28.14 32.05C27.94 31.76 27.78 31.44 27.64 31.11C27.5 30.78 27.4 30.45 27.33 30.1C27.26 29.75 27.23 29.39 27.23 29.04C27.23 28.68 27.26 28.33 27.33 27.98C27.4 27.63 27.5 27.29 27.64 26.96C27.78 26.63 27.94 26.32 28.14 26.03C28.34 25.73 28.56 25.46 28.82 25.2C29.07 24.95 29.34 24.73 29.64 24.53C29.93 24.33 30.25 24.17 30.58 24.03C30.9 23.89 31.24 23.79 31.59 23.72C31.94 23.65 32.29 23.62 32.65 23.62ZM60.44 59.2C60.89 58.79 61.29 58.35 61.65 57.86C62.01 57.37 62.31 56.85 62.56 56.3C62.82 55.75 63.01 55.18 63.15 54.59C63.29 54 63.37 53.41 63.38 52.8C63.4 52.2 63.36 51.6 63.26 51C63.16 50.4 63 49.82 62.78 49.26C62.56 48.7 62.29 48.16 61.96 47.65C61.63 47.14 61.26 46.67 60.84 46.24C60.42 45.8 59.96 45.41 59.46 45.07C58.96 44.73 58.43 44.44 57.87 44.21C57.31 43.97 56.74 43.79 56.15 43.67C55.55 43.55 54.96 43.49 54.35 43.49C53.75 43.49 53.15 43.55 52.55 43.67C51.96 43.79 51.39 43.97 50.83 44.21C50.27 44.44 49.74 44.73 49.24 45.07C48.74 45.41 48.28 45.8 47.86 46.24C47.44 46.67 47.07 47.14 46.74 47.65C46.41 48.16 46.14 48.7 45.92 49.26C45.7 49.82 45.54 50.4 45.44 51C45.34 51.6 45.3 52.2 45.32 52.8C45.33 53.41 45.41 54 45.55 54.59C45.69 55.18 45.88 55.75 46.14 56.3C46.39 56.85 46.69 57.37 47.05 57.86C47.41 58.35 47.81 58.79 48.26 59.2C46.47 59.98 44.88 61.05 43.51 62.43C42.14 61.05 40.55 59.98 38.77 59.2C39.21 58.79 39.61 58.35 39.97 57.86C40.33 57.37 40.63 56.85 40.88 56.3C41.14 55.75 41.33 55.18 41.47 54.59C41.61 54 41.69 53.41 41.71 52.8C41.72 52.2 41.68 51.6 41.58 51C41.48 50.4 41.32 49.82 41.1 49.26C40.88 48.7 40.61 48.16 40.28 47.65C39.95 47.14 39.58 46.67 39.16 46.24C38.74 45.8 38.28 45.41 37.78 45.07C37.28 44.73 36.75 44.44 36.19 44.21C35.64 43.97 35.06 43.79 34.47 43.67C33.87 43.55 33.28 43.49 32.67 43.49C32.07 43.49 31.47 43.55 30.87 43.67C30.28 43.79 29.71 43.97 29.15 44.21C28.59 44.44 28.06 44.73 27.56 45.07C27.06 45.41 26.6 45.8 26.18 46.24C25.76 46.67 25.39 47.14 25.06 47.65C24.74 48.16 24.46 48.7 24.24 49.26C24.03 49.82 23.86 50.4 23.76 51C23.66 51.6 23.62 52.2 23.64 52.8C23.65 53.41 23.73 54 23.87 54.59C24.01 55.18 24.2 55.75 24.46 56.3C24.71 56.85 25.01 57.37 25.37 57.86C25.73 58.35 26.13 58.79 26.58 59.2C24.07 60.28 21.99 61.91 20.36 64.1C20.21 64.29 20.11 64.51 20.05 64.74C19.99 64.97 19.98 65.21 20.01 65.44C20.05 65.68 20.13 65.9 20.25 66.11C20.37 66.31 20.53 66.49 20.72 66.63C20.91 66.78 21.12 66.88 21.35 66.94C21.59 67 21.82 67.01 22.06 66.98C22.3 66.94 22.52 66.86 22.73 66.74C22.93 66.62 23.11 66.46 23.25 66.27C23.52 65.91 23.82 65.56 24.13 65.23C24.44 64.9 24.77 64.59 25.12 64.3C25.47 64.01 25.84 63.74 26.22 63.49C26.6 63.24 26.99 63.02 27.4 62.81C27.8 62.61 28.22 62.43 28.65 62.27C29.07 62.12 29.51 61.99 29.95 61.89C30.39 61.78 30.84 61.7 31.29 61.65C31.74 61.6 32.2 61.57 32.65 61.57C33.1 61.57 33.56 61.6 34.01 61.65C34.46 61.7 34.91 61.78 35.35 61.89C35.79 61.99 36.23 62.12 36.65 62.27C37.08 62.43 37.5 62.61 37.91 62.81C38.31 63.02 38.71 63.24 39.09 63.49C39.47 63.74 39.83 64.01 40.18 64.3C40.53 64.59 40.86 64.9 41.17 65.23C41.49 65.56 41.78 65.91 42.05 66.27C42.19 66.46 42.37 66.62 42.58 66.74C42.78 66.86 43 66.94 43.24 66.97C43.48 67.01 43.71 67 43.95 66.94C44.18 66.88 44.39 66.77 44.58 66.63C44.72 66.53 44.84 66.41 44.94 66.27C45.21 65.91 45.51 65.56 45.82 65.23C46.13 64.9 46.46 64.59 46.81 64.3C47.16 64.01 47.53 63.74 47.91 63.49C48.29 63.24 48.68 63.02 49.09 62.81C49.49 62.61 49.91 62.43 50.34 62.27C50.76 62.12 51.2 61.99 51.64 61.89C52.08 61.78 52.53 61.7 52.98 61.65C53.43 61.6 53.89 61.57 54.34 61.57C54.8 61.57 55.25 61.6 55.7 61.65C56.15 61.7 56.6 61.78 57.04 61.89C57.48 61.99 57.92 62.12 58.35 62.27C58.77 62.43 59.19 62.61 59.6 62.81C60 63.02 60.4 63.24 60.78 63.49C61.16 63.74 61.52 64.01 61.87 64.3C62.22 64.59 62.55 64.9 62.86 65.23C63.18 65.56 63.47 65.91 63.74 66.27C63.89 66.46 64.06 66.62 64.27 66.74C64.47 66.86 64.69 66.94 64.93 66.98C65.17 67.01 65.4 67 65.64 66.94C65.87 66.88 66.08 66.78 66.27 66.63C66.46 66.49 66.62 66.31 66.74 66.11C66.87 65.9 66.94 65.68 66.98 65.44C67.01 65.2 67 64.97 66.94 64.74C66.88 64.5 66.78 64.29 66.63 64.1C65.01 61.92 62.94 60.28 60.44 59.2ZM32.65 47.11C33.01 47.11 33.36 47.15 33.71 47.22C34.06 47.29 34.4 47.39 34.73 47.53C35.05 47.66 35.37 47.83 35.66 48.03C35.96 48.22 36.23 48.45 36.49 48.7C36.74 48.95 36.96 49.23 37.16 49.52C37.36 49.82 37.52 50.13 37.66 50.46C37.8 50.79 37.9 51.13 37.97 51.48C38.04 51.83 38.07 52.18 38.07 52.53C38.07 52.89 38.04 53.24 37.97 53.59C37.9 53.94 37.8 54.28 37.66 54.61C37.52 54.94 37.36 55.25 37.16 55.55C36.96 55.84 36.74 56.12 36.49 56.37C36.23 56.62 35.96 56.85 35.66 57.04C35.37 57.24 35.05 57.41 34.73 57.54C34.4 57.68 34.06 57.78 33.71 57.85C33.36 57.92 33.01 57.96 32.65 57.96C32.29 57.96 31.94 57.92 31.59 57.85C31.24 57.78 30.9 57.68 30.58 57.54C30.25 57.41 29.93 57.24 29.64 57.04C29.34 56.85 29.07 56.62 28.82 56.37C28.56 56.12 28.34 55.84 28.14 55.55C27.94 55.25 27.78 54.94 27.64 54.61C27.5 54.28 27.4 53.94 27.33 53.59C27.26 53.24 27.23 52.89 27.23 52.53C27.23 52.18 27.26 51.83 27.33 51.48C27.4 51.13 27.5 50.79 27.64 50.46C27.78 50.13 27.94 49.82 28.14 49.52C28.34 49.23 28.56 48.95 28.82 48.7C29.07 48.45 29.34 48.22 29.64 48.03C29.93 47.83 30.25 47.66 30.58 47.53C30.9 47.39 31.24 47.29 31.59 47.22C31.94 47.15 32.29 47.11 32.65 47.11ZM54.34 47.11C54.7 47.11 55.05 47.15 55.4 47.22C55.75 47.29 56.09 47.39 56.42 47.53C56.75 47.66 57.06 47.83 57.36 48.03C57.65 48.22 57.93 48.45 58.18 48.7C58.43 48.95 58.65 49.23 58.85 49.52C59.05 49.82 59.22 50.13 59.35 50.46C59.49 50.79 59.59 51.13 59.66 51.48C59.73 51.83 59.77 52.18 59.77 52.53C59.77 52.89 59.73 53.24 59.66 53.59C59.59 53.94 59.49 54.28 59.35 54.61C59.22 54.94 59.05 55.25 58.85 55.55C58.65 55.84 58.43 56.12 58.18 56.37C57.93 56.62 57.65 56.85 57.36 57.04C57.06 57.24 56.75 57.41 56.42 57.54C56.09 57.68 55.75 57.78 55.4 57.85C55.05 57.92 54.7 57.96 54.34 57.96C53.99 57.96 53.63 57.92 53.29 57.85C52.94 57.78 52.6 57.68 52.27 57.54C51.94 57.41 51.63 57.24 51.33 57.04C51.03 56.85 50.76 56.62 50.51 56.37C50.26 56.12 50.03 55.84 49.83 55.55C49.64 55.25 49.47 54.94 49.33 54.61C49.2 54.28 49.09 53.94 49.02 53.59C48.95 53.24 48.92 52.89 48.92 52.53C48.92 52.18 48.95 51.83 49.02 51.48C49.09 51.13 49.2 50.79 49.33 50.46C49.47 50.13 49.64 49.82 49.83 49.52C50.03 49.23 50.26 48.95 50.51 48.7C50.76 48.45 51.03 48.22 51.33 48.03C51.63 47.83 51.94 47.66 52.27 47.53C52.6 47.39 52.94 47.29 53.29 47.22C53.63 47.15 53.99 47.11 54.34 47.11Z" fill="#000000" fill-opacity="1.000000" fill-rule="nonzero"/>
	</g>
</svg>
