<svg width="44.000488" height="47.000305" viewBox="0 0 44.0005 47.0003" fill="none" xmlns="http://www.w3.org/2000/svg" xmlns:xlink="http://www.w3.org/1999/xlink">
	<desc>
			Created with Pixso.
	</desc>
	<defs/>
	<path id="path" d="M43.05 11.98C42.84 12.09 42.62 12.15 42.39 12.17C42.16 12.19 41.93 12.17 41.71 12.1C41.49 12.03 41.29 11.92 41.11 11.77C40.93 11.62 40.79 11.44 40.68 11.24C38.98 7.9 36.53 5.22 33.34 3.21C33.15 3.09 32.98 2.93 32.85 2.74C32.71 2.55 32.62 2.35 32.57 2.12C32.52 1.9 32.51 1.67 32.55 1.44C32.59 1.21 32.67 1 32.8 0.81C32.92 0.61 33.08 0.45 33.27 0.32C33.46 0.18 33.67 0.09 33.89 0.04C34.12 -0.01 34.35 -0.02 34.58 0.02C34.81 0.06 35.02 0.14 35.22 0.26C37.04 1.42 38.68 2.8 40.14 4.39C41.59 5.98 42.81 7.73 43.8 9.64C43.91 9.84 43.97 10.06 43.99 10.29C44.01 10.52 43.98 10.75 43.91 10.96C43.84 11.18 43.73 11.38 43.58 11.56C43.43 11.74 43.25 11.88 43.05 11.98ZM1.75 12.18C2.08 12.18 2.38 12.09 2.66 11.93C2.94 11.76 3.16 11.53 3.31 11.24C5.01 7.9 7.46 5.22 10.65 3.21C10.84 3.09 11.01 2.93 11.14 2.74C11.28 2.55 11.37 2.35 11.42 2.12C11.47 1.9 11.48 1.67 11.44 1.44C11.4 1.21 11.32 1 11.19 0.81C11.07 0.61 10.91 0.45 10.72 0.31C10.53 0.18 10.32 0.09 10.1 0.04C9.87 -0.01 9.64 -0.02 9.41 0.02C9.18 0.06 8.97 0.14 8.77 0.26C6.95 1.42 5.31 2.8 3.85 4.39C2.4 5.98 1.18 7.73 0.19 9.64C0.12 9.77 0.07 9.91 0.04 10.06C0 10.2 -0.01 10.35 0 10.5C0 10.65 0.03 10.79 0.07 10.94C0.11 11.08 0.17 11.22 0.25 11.34C0.33 11.47 0.42 11.59 0.53 11.69C0.64 11.79 0.76 11.88 0.89 11.96C1.02 12.03 1.16 12.08 1.3 12.12C1.45 12.16 1.6 12.18 1.75 12.18ZM42.57 34.79C42.88 35.33 43.04 35.91 43.05 36.53C43.05 37.16 42.89 37.74 42.58 38.28C42.27 38.82 41.84 39.24 41.3 39.56C40.75 39.87 40.17 40.02 39.54 40.03L30.59 40.03C30.49 40.51 30.35 40.99 30.17 41.45C29.98 41.92 29.76 42.36 29.5 42.79C29.24 43.22 28.95 43.62 28.62 43.99C28.29 44.37 27.93 44.72 27.54 45.03C27.16 45.35 26.74 45.63 26.31 45.87C25.87 46.12 25.41 46.32 24.94 46.49C24.47 46.66 23.98 46.78 23.49 46.87C22.99 46.95 22.49 47 21.99 47C21.49 47 20.99 46.95 20.5 46.87C20 46.78 19.52 46.66 19.04 46.49C18.57 46.32 18.12 46.12 17.68 45.87C17.24 45.63 16.83 45.35 16.44 45.03C16.05 44.72 15.69 44.37 15.36 43.99C15.03 43.62 14.74 43.22 14.48 42.79C14.22 42.36 14 41.92 13.82 41.45C13.63 40.99 13.49 40.51 13.39 40.03L4.44 40.03C3.82 40.02 3.23 39.87 2.69 39.55C2.15 39.24 1.72 38.82 1.41 38.28C1.09 37.74 0.94 37.15 0.94 36.53C0.94 35.91 1.1 35.33 1.42 34.79C3.4 31.41 4.44 26.6 4.44 20.88C4.44 20.31 4.47 19.74 4.53 19.18C4.59 18.61 4.67 18.04 4.78 17.49C4.89 16.93 5.03 16.37 5.2 15.83C5.37 15.28 5.56 14.75 5.78 14.22C6 13.69 6.25 13.18 6.52 12.68C6.79 12.17 7.08 11.69 7.4 11.21C7.72 10.74 8.06 10.28 8.43 9.84C8.79 9.4 9.18 8.98 9.58 8.57C9.99 8.17 10.42 7.79 10.86 7.43C11.3 7.07 11.77 6.73 12.24 6.41C12.72 6.09 13.21 5.8 13.72 5.53C14.23 5.26 14.75 5.02 15.28 4.8C15.81 4.58 16.35 4.39 16.9 4.23C17.45 4.06 18 3.92 18.57 3.81C19.13 3.7 19.7 3.62 20.27 3.56C20.84 3.51 21.42 3.48 21.99 3.48C22.57 3.48 23.14 3.51 23.71 3.56C24.28 3.62 24.85 3.7 25.41 3.81C25.98 3.92 26.54 4.06 27.09 4.23C27.64 4.39 28.18 4.58 28.71 4.8C29.24 5.02 29.76 5.26 30.26 5.53C30.77 5.8 31.26 6.09 31.74 6.41C32.22 6.73 32.68 7.07 33.12 7.43C33.57 7.79 33.99 8.17 34.4 8.57C34.81 8.98 35.19 9.4 35.56 9.84C35.92 10.28 36.26 10.74 36.58 11.21C36.9 11.69 37.2 12.17 37.47 12.68C37.74 13.18 37.98 13.69 38.2 14.22C38.42 14.75 38.62 15.28 38.78 15.83C38.95 16.37 39.09 16.93 39.2 17.49C39.31 18.04 39.4 18.61 39.45 19.18C39.51 19.74 39.54 20.31 39.54 20.88C39.54 26.6 40.59 31.41 42.57 34.79ZM26.95 40.03L17.03 40.03C17.21 40.53 17.47 41 17.8 41.43C18.12 41.86 18.51 42.23 18.95 42.54C19.4 42.86 19.88 43.09 20.4 43.26C20.92 43.42 21.45 43.5 21.99 43.5C22.54 43.5 23.07 43.42 23.59 43.26C24.1 43.09 24.58 42.86 25.03 42.54C25.47 42.23 25.86 41.86 26.19 41.43C26.52 41 26.77 40.53 26.95 40.03ZM39.54 36.54C37.21 32.57 36.03 27.3 36.03 20.88C36.03 19.97 35.94 19.06 35.76 18.16C35.58 17.27 35.31 16.4 34.96 15.55C34.61 14.71 34.18 13.91 33.66 13.15C33.15 12.39 32.57 11.68 31.92 11.04C31.27 10.39 30.56 9.81 29.79 9.3C29.02 8.8 28.22 8.37 27.36 8.02C26.51 7.67 25.63 7.4 24.73 7.23C23.83 7.05 22.91 6.96 21.99 6.96C21.07 6.96 20.16 7.05 19.25 7.23C18.35 7.4 17.47 7.67 16.62 8.02C15.77 8.37 14.96 8.8 14.19 9.3C13.43 9.81 12.72 10.39 12.07 11.04C11.41 11.68 10.83 12.39 10.32 13.15C9.81 13.91 9.38 14.71 9.02 15.55C8.67 16.4 8.4 17.27 8.22 18.16C8.04 19.06 7.95 19.97 7.95 20.88C7.95 27.3 6.77 32.57 4.44 36.54L39.54 36.54Z" fill="#000000" fill-opacity="1.000000" fill-rule="nonzero"/>
</svg>
