<svg width="24.000000" height="24.000000" viewBox="0 0 24 24" fill="none" xmlns="http://www.w3.org/2000/svg" xmlns:xlink="http://www.w3.org/1999/xlink">
	<desc>
			Created with Pixso.
	</desc>
	<defs>
		<clipPath id="clip7_13">
			<rect id="MagnifyingGlass" width="24.000000" height="24.000000" fill="white" fill-opacity="0"/>
		</clipPath>
	</defs>
	<g clip-path="url(#clip7_13)">
		<path id="path" d="M17.79 19.81L13.46 15.49C13.57 15.36 13.67 15.24 13.76 15.11C13.86 14.97 13.95 14.84 14.04 14.71C14.12 14.57 14.2 14.43 14.28 14.29C14.36 14.15 14.43 14 14.5 13.86C14.57 13.71 14.64 13.56 14.69 13.41C14.75 13.26 14.81 13.11 14.86 12.96C14.91 12.8 14.95 12.65 14.99 12.49C15.03 12.34 15.07 12.18 15.1 12.02C15.13 11.86 15.15 11.7 15.17 11.54C15.19 11.38 15.21 11.22 15.22 11.06C15.23 10.9 15.23 10.74 15.23 10.58C15.23 10.42 15.22 10.25 15.21 10.09C15.2 9.93 15.18 9.77 15.16 9.61C15.14 9.45 15.12 9.29 15.08 9.13C15.05 8.98 15.02 8.82 14.98 8.66C14.93 8.51 14.89 8.35 14.84 8.2C14.79 8.05 14.73 7.89 14.67 7.74C14.61 7.59 14.54 7.45 14.47 7.3C14.4 7.16 14.33 7.01 14.25 6.87C14.17 6.73 14.08 6.59 14 6.46C13.91 6.32 13.82 6.19 13.72 6.06C13.62 5.93 13.52 5.81 13.42 5.68C13.31 5.56 13.21 5.44 13.09 5.32C12.98 5.21 12.87 5.1 12.75 4.99C12.63 4.88 12.51 4.77 12.38 4.67C12.25 4.57 12.12 4.47 11.99 4.38C11.86 4.29 11.73 4.2 11.59 4.12C11.45 4.03 11.31 3.95 11.17 3.88C11.02 3.8 10.88 3.73 10.73 3.66C10.59 3.6 10.44 3.54 10.29 3.48C10.13 3.42 9.98 3.37 9.83 3.32C9.67 3.28 9.52 3.24 9.36 3.2C9.2 3.16 9.04 3.13 8.89 3.1C8.73 3.08 8.57 3.05 8.41 3.04C8.25 3.02 8.08 3.01 7.92 3C7.76 2.99 7.6 2.99 7.44 3C7.28 3 7.12 3.01 6.96 3.02C6.79 3.04 6.63 3.06 6.47 3.08C6.32 3.1 6.16 3.13 6 3.17C5.84 3.2 5.68 3.24 5.53 3.29C5.37 3.33 5.22 3.38 5.07 3.43C4.92 3.49 4.77 3.54 4.62 3.61C4.47 3.67 4.32 3.74 4.18 3.81C4.03 3.89 3.89 3.96 3.75 4.04C3.61 4.13 3.48 4.21 3.34 4.3C3.21 4.39 3.08 4.49 2.95 4.59C2.82 4.69 2.7 4.79 2.58 4.89C2.46 5 2.34 5.11 2.23 5.23C2.11 5.34 2 5.46 1.89 5.58C1.79 5.7 1.69 5.82 1.59 5.95C1.49 6.08 1.39 6.21 1.3 6.34C1.21 6.48 1.13 6.61 1.04 6.75C0.96 6.89 0.89 7.03 0.81 7.18C0.74 7.32 0.67 7.47 0.61 7.62C0.54 7.77 0.49 7.92 0.43 8.07C0.38 8.22 0.33 8.37 0.29 8.53C0.24 8.68 0.2 8.84 0.17 9C0.13 9.16 0.1 9.32 0.08 9.47C0.06 9.63 0.04 9.79 0.02 9.96C0.01 10.12 0 10.28 0 10.44C-0.01 10.6 0 10.76 0 10.92C0.01 11.08 0.02 11.25 0.04 11.41C0.05 11.57 0.08 11.73 0.1 11.89C0.13 12.04 0.16 12.2 0.2 12.36C0.24 12.52 0.28 12.67 0.32 12.83C0.37 12.98 0.42 13.13 0.48 13.29C0.54 13.44 0.6 13.59 0.66 13.73C0.73 13.88 0.8 14.03 0.88 14.17C0.95 14.31 1.03 14.45 1.12 14.59C1.2 14.73 1.29 14.86 1.38 14.99C1.47 15.13 1.57 15.25 1.67 15.38C1.77 15.51 1.88 15.63 1.99 15.75C2.1 15.87 2.21 15.98 2.32 16.09C2.44 16.21 2.56 16.31 2.68 16.42C2.81 16.52 2.93 16.62 3.06 16.72C3.19 16.82 3.32 16.91 3.46 17C3.59 17.09 3.73 17.17 3.87 17.25C4.01 17.33 4.16 17.4 4.3 17.47C4.45 17.54 4.6 17.61 4.74 17.67C4.89 17.73 5.05 17.79 5.2 17.84C5.35 17.89 5.51 17.93 5.66 17.97C5.82 18.02 5.98 18.05 6.13 18.08C6.29 18.12 6.45 18.14 6.61 18.16C6.77 18.18 6.93 18.2 7.09 18.21C7.25 18.22 7.42 18.23 7.58 18.23C7.74 18.23 7.9 18.22 8.06 18.22C8.22 18.21 8.38 18.19 8.54 18.17C8.7 18.15 8.86 18.13 9.02 18.1C9.18 18.07 9.34 18.03 9.49 17.99C9.65 17.95 9.8 17.91 9.96 17.86C10.11 17.81 10.26 17.75 10.41 17.69C10.56 17.64 10.71 17.57 10.86 17.5C11 17.43 11.15 17.36 11.29 17.28C11.43 17.2 11.57 17.12 11.71 17.04C11.84 16.95 11.97 16.86 12.1 16.76C12.24 16.67 12.36 16.57 12.49 16.46L16.81 20.79C16.88 20.86 16.95 20.91 17.04 20.94C17.12 20.98 17.21 21 17.3 21C17.39 21 17.48 20.98 17.57 20.94C17.65 20.91 17.73 20.86 17.79 20.79C17.86 20.73 17.91 20.65 17.94 20.57C17.98 20.48 18 20.4 18 20.3C18 20.21 17.98 20.12 17.94 20.04C17.91 19.95 17.86 19.88 17.79 19.81ZM1.4 10.62C1.4 10.42 1.41 10.21 1.43 10.01C1.45 9.81 1.48 9.61 1.52 9.41C1.56 9.21 1.61 9.01 1.67 8.81C1.72 8.62 1.79 8.43 1.87 8.24C1.95 8.05 2.04 7.87 2.13 7.69C2.23 7.51 2.33 7.33 2.45 7.16C2.56 6.99 2.68 6.83 2.81 6.67C2.94 6.52 3.08 6.36 3.22 6.22C3.36 6.08 3.52 5.94 3.67 5.81C3.83 5.68 3.99 5.56 4.16 5.45C4.33 5.33 4.51 5.23 4.69 5.13C4.87 5.04 5.05 4.95 5.24 4.87C5.43 4.79 5.62 4.72 5.81 4.67C6.01 4.61 6.21 4.56 6.41 4.52C6.61 4.48 6.81 4.45 7.01 4.43C7.21 4.41 7.42 4.4 7.62 4.4C7.83 4.4 8.03 4.41 8.23 4.43C8.43 4.45 8.64 4.48 8.84 4.52C9.04 4.56 9.23 4.61 9.43 4.67C9.62 4.72 9.81 4.79 10 4.87C10.19 4.95 10.38 5.04 10.56 5.13C10.74 5.23 10.91 5.33 11.08 5.45C11.25 5.56 11.41 5.68 11.57 5.81C11.73 5.94 11.88 6.08 12.02 6.22C12.17 6.36 12.3 6.52 12.43 6.67C12.56 6.83 12.68 6.99 12.8 7.16C12.91 7.33 13.01 7.51 13.11 7.69C13.21 7.87 13.29 8.05 13.37 8.24C13.45 8.43 13.52 8.62 13.58 8.81C13.64 9.01 13.69 9.21 13.73 9.41C13.77 9.61 13.8 9.81 13.82 10.01C13.84 10.21 13.85 10.42 13.85 10.62C13.85 10.83 13.84 11.03 13.82 11.23C13.8 11.43 13.77 11.64 13.73 11.84C13.69 12.04 13.64 12.23 13.58 12.43C13.52 12.62 13.45 12.81 13.37 13C13.29 13.19 13.21 13.38 13.11 13.56C13.01 13.74 12.91 13.91 12.8 14.08C12.68 14.25 12.56 14.41 12.43 14.57C12.3 14.73 12.17 14.88 12.02 15.02C11.88 15.17 11.73 15.3 11.57 15.43C11.41 15.56 11.25 15.68 11.08 15.8C10.91 15.91 10.74 16.01 10.56 16.11C10.38 16.21 10.19 16.29 10 16.37C9.81 16.45 9.62 16.52 9.43 16.58C9.23 16.64 9.04 16.69 8.84 16.73C8.64 16.77 8.43 16.8 8.23 16.82C8.03 16.84 7.83 16.85 7.62 16.85C7.42 16.85 7.21 16.84 7.01 16.81C6.81 16.79 6.61 16.76 6.41 16.72C6.21 16.68 6.01 16.64 5.82 16.58C5.62 16.52 5.43 16.45 5.24 16.37C5.05 16.29 4.87 16.2 4.69 16.11C4.51 16.01 4.33 15.91 4.16 15.79C4 15.68 3.83 15.56 3.67 15.43C3.52 15.3 3.37 15.16 3.22 15.02C3.08 14.88 2.94 14.73 2.81 14.57C2.68 14.41 2.56 14.25 2.45 14.08C2.33 13.91 2.23 13.73 2.13 13.55C2.04 13.37 1.95 13.19 1.87 13C1.79 12.81 1.73 12.62 1.67 12.43C1.61 12.23 1.56 12.04 1.52 11.84C1.48 11.64 1.45 11.43 1.43 11.23C1.41 11.03 1.4 10.83 1.4 10.62Z" fill="#000000" fill-opacity="0.600000" fill-rule="nonzero"/>
	</g>
</svg>
