<svg width="22.000977" height="12.001465" viewBox="0 0 22.001 12.0015" fill="none" xmlns="http://www.w3.org/2000/svg" xmlns:xlink="http://www.w3.org/1999/xlink">
	<desc>
			Created with Pixso.
	</desc>
	<defs/>
	<path id="path" d="M20.29 0.29C20.38 0.19 20.49 0.12 20.61 0.07C20.74 0.02 20.86 0 21 0C21.13 0 21.26 0.02 21.38 0.07C21.5 0.12 21.61 0.19 21.7 0.29C21.8 0.38 21.87 0.49 21.92 0.61C21.97 0.74 22 0.86 22 1C22 1.13 21.97 1.26 21.92 1.38C21.87 1.5 21.8 1.61 21.7 1.7L11.7 11.7C11.61 11.8 11.5 11.87 11.38 11.92C11.26 11.97 11.13 12 11 12C10.86 12 10.74 11.97 10.61 11.92C10.49 11.87 10.38 11.8 10.29 11.7L0.29 1.7C0.19 1.61 0.12 1.5 0.07 1.38C0.02 1.26 0 1.13 0 1C0 0.86 0.02 0.74 0.07 0.61C0.12 0.49 0.19 0.38 0.29 0.29C0.38 0.19 0.49 0.12 0.61 0.07C0.74 0.02 0.86 0 1 0C1.13 0 1.26 0.02 1.38 0.07C1.5 0.12 1.61 0.19 1.7 0.29L11 9.58L20.29 0.29Z" fill="#000000" fill-opacity="1.000000" fill-rule="nonzero"/>
</svg>
